<?xml version="1.0" encoding="UTF-8" standalone="no"?>
<svg xmlns="http://www.w3.org/2000/svg" xml:space="preserve" height="44.678px" viewBox="0 0 44.678 44.678" width="44.678px" version="1.1" y="0px" x="0px" xmlns:xlink="http://www.w3.org/1999/xlink"><path d="m32.653 6.125h-19.253c-1.612 0-1.612 2.5 0 2.5h19.253c1.612 0 1.612-2.5 0-2.5z"/><path d="m32.653 12.042h-9.254c-1.611 0-1.611 2.5 0 2.5h9.254c1.612 0 1.612-2.5 0-2.5z"/><path style="" d="m4.198 9.784h3v-6.784h29.055v15.867h3v-18.867h-35.055z"/><path id="c" d="m33.97 35.793c-0.004-0.319-0.029-0.637-0.084-0.943 0.449-0.361 1.35-1.082 1.35-1.082l0.049-1.511-2.076-2.586-1.514-0.049s-0.736 0.592-1.104 0.887c-0.383-0.2-0.789-0.369-1.213-0.5-0.021-0.427-0.064-1.282-0.064-1.282l-1.035-1.102-3.309 0.161-1.104 1.034s0.055 1.125 0.08 1.687c-0.328 0.173-0.641 0.372-0.933 0.593-0.457-0.228-1.374-0.683-1.374-0.683l-1.475 0.337-1.479 2.97-0.055 0.203 0.392 1.271s1.063 0.526 1.595 0.791c0.012 0.357 0.056 0.705 0.133 1.043-0.423 0.334-1.269 1.009-1.269 1.009l-0.049 1.509 2.06 2.598s1.24 0.188 1.308 0.153 0.204-0.104 0.204-0.104 0.805-0.638 1.207-0.957c0.324 0.16 0.664 0.295 1.02 0.402 0.025 0.446 0.078 1.338 0.078 1.338l1.035 1.102 3.305-0.194 1.104-1.032s-0.066-1.149-0.1-1.724c0.273-0.146 0.539-0.308 0.789-0.487 0.42 0.262 1.264 0.786 1.264 0.786l1.475-0.338 1.752-2.813-0.338-1.476c0.002-0.001-1.082-0.675-1.625-1.011zm-6.965 3.386c-1.84-0.059-3.285-1.599-3.225-3.438 0.059-1.844 1.6-3.286 3.439-3.228 1.842 0.06 3.285 1.599 3.227 3.442-0.06 1.841-1.599 3.283-3.441 3.224z"/><path d="m40.116 28.74s-1.166-0.725-1.75-1.086c-0.004-0.344-0.029-0.684-0.09-1.013 0.484-0.389 1.453-1.165 1.453-1.165l0.053-1.625-2.234-2.782-1.627-0.053s-0.793 0.635-1.188 0.955c-0.412-0.217-0.848-0.399-1.307-0.539-0.021-0.46-0.066-1.379-0.066-1.379l-1.111-1.187-3.562 0.174-1.186 1.112s0.059 1.209 0.086 1.813c-0.354 0.187-0.689 0.399-1.002 0.64-0.492-0.246-1.48-0.734-1.48-0.734l-1.584 0.363-1.593 3.192-0.06 0.22 0.423 1.366s0.746 0.37 1.335 0.662l0.66-0.619 0.27-0.251 0.367-0.018 2.656-0.129c0.465-1.506 1.877-2.584 3.527-2.53 1.982 0.063 3.535 1.719 3.471 3.7-0.016 0.533-0.156 1.031-0.379 1.479l1.865 2.324 0.232 0.289-0.012 0.37-0.031 0.958c0.387 0.24 0.758 0.471 0.758 0.471l1.586-0.363 1.883-3.025-0.363-1.59z"/><path id="b" d="m8.843 21.619c-0.207 0.185-0.449 0.342-0.725 0.473v0.477c0.154-0.056 0.328-0.141 0.521-0.254s0.348-0.228 0.467-0.34v3.147h0.494v-4.04h-0.319c-0.085 0.174-0.231 0.352-0.438 0.537z"/><path d="m18.615 40.912c-0.207 0.185-0.449 0.342-0.725 0.473v0.477c0.154-0.057 0.328-0.141 0.521-0.254 0.193-0.112 0.348-0.227 0.467-0.34v3.147h0.494v-4.041h-0.319c-0.086 0.174-0.232 0.353-0.438 0.538z"/><path d="m6.993 41.076c-0.107-0.163-0.24-0.288-0.404-0.375-0.163-0.088-0.352-0.131-0.568-0.131-0.292 0-0.536 0.078-0.729 0.235s-0.337 0.382-0.436 0.671c-0.097 0.291-0.147 0.674-0.147 1.149 0 0.756 0.133 1.3 0.398 1.636 0.221 0.276 0.525 0.416 0.914 0.416 0.294 0 0.538-0.078 0.732-0.236 0.191-0.158 0.337-0.384 0.435-0.674 0.097-0.289 0.146-0.671 0.146-1.142 0-0.399-0.03-0.718-0.09-0.951-0.062-0.235-0.146-0.434-0.251-0.598zm-0.4 2.867c-0.155 0.22-0.345 0.33-0.572 0.33s-0.417-0.11-0.572-0.33c-0.155-0.219-0.23-0.656-0.23-1.316 0-0.661 0.083-1.113 0.253-1.359 0.135-0.191 0.317-0.287 0.544-0.287 0.231 0 0.423 0.107 0.578 0.326 0.155 0.217 0.232 0.657 0.232 1.32-0.001 0.658-0.078 1.097-0.233 1.316z"/><path d="m8.938 41.107c-0.207 0.186-0.448 0.342-0.724 0.474v0.477c0.153-0.057 0.327-0.141 0.52-0.254 0.193-0.112 0.349-0.228 0.467-0.34v3.147h0.494v-4.041h-0.319c-0.085 0.175-0.232 0.353-0.438 0.537z"/><path d="m11.647 41.107c-0.207 0.186-0.448 0.342-0.724 0.474v0.477c0.152-0.057 0.327-0.141 0.52-0.254 0.193-0.112 0.35-0.228 0.467-0.34v3.147h0.494v-4.041h-0.318c-0.086 0.175-0.233 0.353-0.439 0.537z"/><path d="m15.952 41.076c-0.107-0.163-0.24-0.288-0.404-0.375-0.163-0.088-0.352-0.131-0.567-0.131-0.293 0-0.537 0.078-0.73 0.235s-0.337 0.382-0.436 0.671c-0.097 0.291-0.146 0.674-0.146 1.149 0 0.756 0.132 1.3 0.397 1.636 0.221 0.276 0.526 0.416 0.915 0.416 0.293 0 0.537-0.078 0.73-0.236s0.337-0.384 0.435-0.674c0.097-0.289 0.147-0.671 0.147-1.142 0-0.399-0.031-0.718-0.092-0.951-0.059-0.235-0.142-0.434-0.249-0.598zm-0.4 2.867c-0.155 0.22-0.345 0.33-0.571 0.33-0.228 0-0.418-0.11-0.574-0.33-0.155-0.219-0.23-0.656-0.23-1.316 0-0.661 0.085-1.113 0.253-1.359 0.137-0.191 0.317-0.287 0.544-0.287 0.231 0 0.423 0.107 0.578 0.326 0.155 0.217 0.232 0.657 0.232 1.32 0.001 0.658-0.076 1.097-0.232 1.316z"/><use xlink:href="#b" transform="translate(0 5.999)" height="100%" width="100%" y="0" x="0"/><use xlink:href="#b" transform="translate(2.803 5.999)" height="100%" width="100%" y="0" x="0"/><use xlink:href="#b" transform="translate(6.348 12.744)" height="100%" width="100%" y="0" x="0"/><path id="a" d="m6.993 21.587c-0.107-0.163-0.24-0.289-0.404-0.375-0.163-0.086-0.352-0.13-0.568-0.13-0.292 0-0.536 0.078-0.729 0.236-0.193 0.156-0.337 0.379-0.436 0.67-0.097 0.289-0.147 0.673-0.147 1.147 0 0.756 0.133 1.302 0.398 1.636 0.221 0.278 0.525 0.418 0.914 0.418 0.294 0 0.538-0.08 0.732-0.238 0.191-0.158 0.337-0.383 0.435-0.672 0.097-0.289 0.146-0.67 0.146-1.144 0-0.397-0.03-0.716-0.09-0.95-0.062-0.236-0.146-0.434-0.251-0.598zm-0.4 2.866c-0.155 0.22-0.345 0.33-0.572 0.33s-0.417-0.11-0.572-0.329c-0.155-0.218-0.23-0.658-0.23-1.318 0-0.659 0.083-1.112 0.253-1.358 0.135-0.191 0.317-0.289 0.544-0.289 0.231 0 0.423 0.109 0.578 0.326 0.155 0.219 0.232 0.658 0.232 1.32-0.001 0.661-0.078 1.099-0.233 1.318z"/><use xlink:href="#a" transform="translate(4.796e-8 5.999)" height="100%" width="100%" y="0" x="0"/><use xlink:href="#a" transform="translate(8.96 5.999)" height="100%" width="100%" y="0" x="0"/><use xlink:href="#a" transform="translate(4.796e-8 12.744)" height="100%" width="100%" y="0" x="0"/><use xlink:href="#a" transform="translate(3.125,12.744)" height="100%" width="100%" y="0" x="0"/><use xlink:href="#a" transform="translate(6.251 12.744)" height="100%" width="100%" y="0" x="0"/><use xlink:href="#c" transform="matrix(.45986 0 0 .45986 4.4657 5.5452)" height="100%" width="100%" y="0" x="0"/><use xlink:href="#c" transform="matrix(.60825 0 0 .60825 -5.6637 -7.368)" height="100%" width="100%" y="0" x="0"/></svg>
