<?xml version="1.0" encoding="UTF-8" standalone="no"?>
<svg xmlns:rdf="http://www.w3.org/1999/02/22-rdf-syntax-ns#" xmlns="http://www.w3.org/2000/svg" enable-background="new 0 0 454 453" xml:space="preserve" height="1e3" viewBox="0 0 1000 1000" width="1e3" version="1.1" y="0px" x="0px" xmlns:cc="http://creativecommons.org/ns#" xmlns:dc="http://purl.org/dc/elements/1.1/"><g transform="translate(-8.9388 -504.06)"><g transform="matrix(2.2044 -.0067461 .033549 2.1405 4.6116 519.17)"><path d="m496.32 14.74l-12.5 50.641-73.31 288.15-148.09-83.86 87.82 141.46-346.33 88.84 349.06 86.53-83.38 141.96 145.47-84.77 96.47 338.56 85.66-339.16 148.14 83.88-87.82-141.41 346.09-88.71-348.86-86.63 83.42-142.01-145.47 84.81-96.37-338.28zm-5.25 49.571l6.7 420.11-91.51-87.23 84.81-332.88zm204.99 236.78l-92.06 91.28-9.4-32.91 101.46-58.37zm-401.19 7.91l96.21 91.58-34.17 8.77-62.04-100.35zm311.88 95.82l344.6 86.39-433.24 1.39 88.64-87.78zm-117.07 99.28l-88.72 87.79-344.71-86.41 433.43-1.38zm20.32 8.15l91.49 87.16-84.8 332.63-6.69-419.79zm140.88 75.09l61.73 99.95-95.85-91.13 34.12-8.82zm-247.11 16.98l9.45 32.92-101.66 58.4 92.21-91.32z" transform="matrix(.45361 .0014296 -.0071099 .46717 2.0704 -7.0556)"/></g></g></svg>
