<?xml version="1.0" encoding="UTF-8" standalone="no"?>
<svg xmlns="http://www.w3.org/2000/svg" height="762" width="734" version="1.1" viewBox="10 147 734 762">
<g>
<flowRoot font-weight="bold" xml:space="preserve" transform="translate(-1067 -44.859)" font-size="144px" font-family="&apos;Bitstream Vera Sans&apos;" fill="#ffffff"><flowRegion><rect height="186.71" width="381.91" y="370.59" x="-22.631" fill="#fff"/></flowRegion><flowPara/></flowRoot>
<g stroke="#000" fill-rule="evenodd">
<path d="m134.19 785.48h469.84c4.9687 0 8.9688-4.1333 8.9688-9.2675v-443.68c0-40.444-108.27-135.6-145.85-135.6h-332.97c-4.9687 0-8.9688 4.1333-8.9688 9.2676v570.01c0 5.1342 4.0001 9.2675 8.9688 9.2675z" stroke-width="16.031" fill="#fff"/>
<g>
<g stroke-width="1.2675">
<rect height="45.136" width="405.4" y="352.06" x="166.24"/>
<rect height="45.136" width="385.95" y="438.61" x="166.24"/>
<rect height="45.136" width="347.04" y="529.03" x="166.77"/>
<rect height="45.136" width="405.4" y="622.88" x="167.18"/>
</g>
<path d="m472.41 196.81c27.831-5.0934 145.01 71.011 140.84 132.27-21.428-37.411-77.369-20.581-133.69-23.036 0 0 3.9909-101.52-7.1463-109.24z" stroke-width="14.548"/>
</g>
</g>
</g>
</svg>
