<?xml version="1.0" encoding="UTF-8" standalone="no"?>
<svg xmlns="http://www.w3.org/2000/svg" height="195" width="208" version="1.1" viewBox="0 0 195 208">
	<path d="m102.49 0c-27.393 0-47.882 27.953-44.324 60.633 2.6012 22.197 8.2751 38.988 18.46 48.753 1.3823 7.1525 2.0753 18.268-4.5235 23.988-11.582 10.04-17.221 13.189-30.979 16.586-37.862 9.35-34.976 29.64-41.123 44.92l207.99 0.18276c-7.1282-16.181-3.6367-36.255-41.26-44.276-16.969-3.6172-21.003-6.7827-34.269-17.591-7.8506-6.3966-6.0423-19.175-3.5183-24.994 10.04-10.375 15.69-27.485 17.87-48.435 3.12-32.745-16.93-59.765-44.32-59.765z" stroke-opacity="0.251" fill-rule="evenodd" stroke-width="2.5"/>
</svg>
