<?xml version="1.0" encoding="UTF-8" standalone="no"?>
<svg
   xmlns="http://www.w3.org/2000/svg"
   viewBox="0 0 22 22"
   version="1.1">

  <path
     style="color:#4d4d4d"
     d="m 16,6 3,0 0,-3 -3,0 z m 2,-2 0,1 -1,0 0,-1 z M 3,19 6,19 6,16 3,16 Z m 2,-2 0,1 -1,0 0,-1 z"/>
  <path
     style="color:#4d4d4d"
     d="m 16,5.313 -4.982271,4.982271 0.711305,0.664695 L 16.688,6.001 C 16.432275,5.7978979 16.225626,5.5469821 16,5.313 M 9.1067119,12.206288 5.312,16.001 6,16.689 9.9112373,12.777763 Z"
/>
  <path
     style="fill:#808080"
     d="m 9,13 3,0 0,-3 -3,0 z m 2,-2 0,1 -1,0 0,-1 z"
/>
</svg>
