<?xml version="1.0" encoding="UTF-8" standalone="no"?>
<!-- Created with Inkscape (http://www.inkscape.org/) -->

<svg
   xmlns:dc="http://purl.org/dc/elements/1.1/"
   xmlns:cc="http://creativecommons.org/ns#"
   xmlns:rdf="http://www.w3.org/1999/02/22-rdf-syntax-ns#"
   xmlns:svg="http://www.w3.org/2000/svg"
   xmlns="http://www.w3.org/2000/svg"
   xmlns:sodipodi="http://sodipodi.sourceforge.net/DTD/sodipodi-0.dtd"
   xmlns:inkscape="http://www.inkscape.org/namespaces/inkscape"
   width="64"
   height="64"
   viewBox="0 0 60.000001 60.000001"
   id="svg5612"
   version="1.1"
   inkscape:version="0.92.1 r15371"
   inkscape:export-filename="F:\0-0-Agata\graphik\pictogrammes\Picto-visu-recyclage\eco-organisme.png"
   inkscape:export-xdpi="300"
   inkscape:export-ydpi="300"
   sodipodi:docname="fonction.svg">
  <defs
     id="defs5614" />
  <sodipodi:namedview
     id="base"
     pagecolor="#ffffff"
     bordercolor="#666666"
     borderopacity="1.0"
     inkscape:pageopacity="0.0"
     inkscape:pageshadow="2"
     inkscape:zoom="5.6"
     inkscape:cx="-2.0892857"
     inkscape:cy="32.193993"
     inkscape:document-units="px"
     inkscape:current-layer="layer1"
     showgrid="false"
     units="px"
     inkscape:window-width="1366"
     inkscape:window-height="705"
     inkscape:window-x="-8"
     inkscape:window-y="-8"
     inkscape:window-maximized="1"
     showguides="false" />
  <metadata
     id="metadata5617">
    <rdf:RDF>
      <cc:Work
         rdf:about="">
        <dc:format>image/svg+xml</dc:format>
        <dc:type
           rdf:resource="http://purl.org/dc/dcmitype/StillImage" />
        <dc:title></dc:title>
      </cc:Work>
    </rdf:RDF>
  </metadata>
  <g
     inkscape:label="Calque 1"
     inkscape:groupmode="layer"
     id="layer1"
     transform="translate(0,-992.36216)">
    <rect
       style="opacity:1;fill:none;fill-opacity:1;stroke:none;stroke-width:5;stroke-linecap:round;stroke-linejoin:round;stroke-miterlimit:4;stroke-dasharray:none;stroke-dashoffset:0;stroke-opacity:1"
       id="rect6160"
       width="60"
       height="60"
       x="-1.5716553e-008"
       y="992.36218"
       inkscape:export-xdpi="300"
       inkscape:export-ydpi="300" />
    <g
       id="g7325"
       transform="matrix(1.0546623,0,0,1.0546623,67.960782,-64.571491)"
       inkscape:export-xdpi="300"
       inkscape:export-ydpi="300">
      <ellipse
         ry="26.401684"
         rx="26.354809"
         cy="1030.5988"
         cx="-35.993305"
         id="path5962-9-0-9-9-3-4-3-8-0"
         style="display:inline;opacity:1;fill:#f5f5f5;fill-opacity:1;stroke:#0fb02b;stroke-width:2.40281248;stroke-linecap:round;stroke-miterlimit:4;stroke-dasharray:none;stroke-dashoffset:0;stroke-opacity:1" />
      <g
         id="g6123"
         style="display:inline;fill:#079161;fill-opacity:1;fill-rule:evenodd;stroke:none;stroke-width:1"
         transform="matrix(1.4383594,0,0,1.4383594,-53.253634,1013.386)">
        <g
           id="g6121"
           style="fill:#079161;fill-opacity:1">
          <path
             style="fill:#079161;fill-opacity:1"
             id="path6115"
             d="m 14,16.0396 c 0,0.272 -0.111,0.533 -0.308,0.721 l -0.248,0.239 0.248,0.239 c 0.197,0.188 0.308,0.448 0.308,0.721 v 1.04 h 5 v -4 h -5 z"
             inkscape:connector-curvature="0" />
          <path
             style="fill:#079161;fill-opacity:1"
             id="path6117"
             d="m 14,6.0396 c 0,0.272 -0.111,0.533 -0.308,0.721 l -0.248,0.239 0.248,0.239 C 13.889,7.4266 14,7.6866 14,7.9596 v 1.04 h 5 v -4 h -5 z"
             inkscape:connector-curvature="0" />
          <path
             style="fill:#079161;fill-opacity:1"
             id="path6119"
             d="m 21,9.9995 c 0,0.552 -0.447,1 -1,1 h -7 c -0.553,0 -1,-0.448 -1,-1 V 8.3855 L 11.308,7.7205 C 11.111,7.5325 11,7.2715 11,6.9995 c 0,-0.272 0.111,-0.533 0.308,-0.721 L 12,5.6135 v -1.614 c 0,-0.552 0.447,-1 1,-1 h 7 c 0.553,0 1,0.448 1,1 z m 0,10 c 0,0.552 -0.447,1 -1,1 h -7 c -0.553,0 -1,-0.448 -1,-1 v -1.614 l -0.692,-0.665 C 11.111,17.5325 11,17.2715 11,16.9995 c 0,-0.272 0.111,-0.533 0.308,-0.721 L 12,15.6135 v -1.614 c 0,-0.552 0.447,-1 1,-1 h 7 c 0.553,0 1,0.448 1,1 z m -11,-6 H 9 5 c -0.553,0 -1,-0.448 -1,-1 0,-0.552 0.447,-1 1,-1 h 4 1 c 0.553,0 1,0.448 1,1 0,0.552 -0.447,1 -1,1 z m -1,4 H 5 c -0.553,0 -1,-0.448 -1,-1 0,-0.552 0.447,-1 1,-1 h 4 c 0.553,0 1,0.448 1,1 0,0.552 -0.447,1 -1,1 z m -4,-10 h 2 c 0.553,0 1,0.448 1,1 0,0.552 -0.447,1 -1,1 H 5 c -0.553,0 -1,-0.448 -1,-1 0,-0.552 0.447,-1 1,-1 z m 0,-4 h 4 c 0.553,0 1,0.448 1,1 0,0.552 -0.447,1 -1,1 H 5 c -0.553,0 -1,-0.448 -1,-1 0,-0.552 0.447,-1 1,-1 z m 16,-4 H 3 c -1.654,0 -3,1.346 -3,3 v 18 c 0,1.654 1.346,3 3,3 h 18 c 1.654,0 3,-1.346 3,-3 v -18 c 0,-1.654 -1.346,-3 -3,-3 z"
             inkscape:connector-curvature="0" />
        </g>
      </g>
    </g>
  </g>
</svg>
