<?xml version="1.0" encoding="UTF-8" standalone="no"?>
<!-- Created with Inkscape (http://www.inkscape.org/) -->

<svg
   xmlns:dc="http://purl.org/dc/elements/1.1/"
   xmlns:cc="http://creativecommons.org/ns#"
   xmlns:rdf="http://www.w3.org/1999/02/22-rdf-syntax-ns#"
   xmlns:svg="http://www.w3.org/2000/svg"
   xmlns="http://www.w3.org/2000/svg"
   xmlns:sodipodi="http://sodipodi.sourceforge.net/DTD/sodipodi-0.dtd"
   xmlns:inkscape="http://www.inkscape.org/namespaces/inkscape"
   width="45"
   height="45"
   viewBox="0 0 45 45.000001"
   id="svg4958"
   version="1.1"
   inkscape:version="0.91 r13725"
   sodipodi:docname="Déchetterie.svg"
   inkscape:export-filename="D:\0-0-Agata\graphik\pictogrammes\Pictos-fonctions\picto-loupe.png"
   inkscape:export-xdpi="300"
   inkscape:export-ydpi="300">
  <defs
     id="defs4960" />
  <sodipodi:namedview
     id="base"
     pagecolor="#ffffff"
     bordercolor="#666666"
     borderopacity="1.0"
     inkscape:pageopacity="0.0"
     inkscape:pageshadow="2"
     inkscape:zoom="3.959798"
     inkscape:cx="-24.440026"
     inkscape:cy="35.074605"
     inkscape:document-units="px"
     inkscape:current-layer="layer1"
     showgrid="true"
     units="px"
     inkscape:window-width="1366"
     inkscape:window-height="705"
     inkscape:window-x="-8"
     inkscape:window-y="-8"
     inkscape:window-maximized="1">
    <inkscape:grid
       type="xygrid"
       id="grid6185" />
  </sodipodi:namedview>
  <metadata
     id="metadata4963">
    <rdf:RDF>
      <cc:Work
         rdf:about="">
        <dc:format>image/svg+xml</dc:format>
        <dc:type
           rdf:resource="http://purl.org/dc/dcmitype/StillImage" />
        <dc:title />
      </cc:Work>
    </rdf:RDF>
  </metadata>
  <g
     inkscape:label="Calque 1"
     inkscape:groupmode="layer"
     id="layer1"
     transform="translate(0,-1007.3622)">
    <rect
       style="opacity:1;fill:none;fill-opacity:1;stroke:none;stroke-width:1.95103896;stroke-linecap:round;stroke-linejoin:round;stroke-miterlimit:4;stroke-dasharray:none;stroke-dashoffset:0;stroke-opacity:1"
       id="rect5524"
       width="45"
       height="45"
       x="3.4562684e-009"
       y="1007.3622"
       inkscape:export-filename="D:\0-0-Agata\graphik\pictogrammes\Picto-legendes\DEA.png"
       inkscape:export-xdpi="300"
       inkscape:export-ydpi="300" />
    <rect
       style="opacity:1;fill:none;fill-opacity:1;stroke:none;stroke-width:1.95103896;stroke-linecap:round;stroke-linejoin:round;stroke-miterlimit:4;stroke-dasharray:none;stroke-dashoffset:0;stroke-opacity:1"
       id="rect5524-31"
       width="45"
       height="45"
       x="3.4562684e-009"
       y="1007.3622"
       inkscape:export-filename="D:\0-0-Agata\graphik\pictogrammes\Picto-legendes\DEA.png"
       inkscape:export-xdpi="300"
       inkscape:export-ydpi="300" />
    <g
       id="g6786"
       transform="matrix(0.86682538,0,0,0.86682538,-45.226116,108.36546)"
       inkscape:export-xdpi="300"
       inkscape:export-ydpi="300">
      <circle
         inkscape:export-ydpi="300"
         inkscape:export-xdpi="300"
         inkscape:export-filename="D:\0-0-Opacite\graphik\pictogrammes\Déf\Entreprises.png"
         r="24.80315"
         cy="1063.0708"
         cx="78.13121"
         id="path5087-3-8-5-1-2-8"
         style="display:inline;opacity:1;fill:#23da04;fill-opacity:1;stroke:none;stroke-width:1;stroke-miterlimit:4;stroke-dasharray:none;stroke-dashoffset:0;stroke-opacity:1" />
      <path
         sodipodi:nodetypes="cccccccccccccccccccc"
         inkscape:connector-curvature="0"
         id="path6062"
         d="m 73.805759,1059.4514 -11.2013,11.0821 -1.708,-1.7477 0.278,6.1965 6.1171,0.3575 -1.5293,-1.708 7.825,-7.9641 -0.02,10.387 -2.3038,0.079 4.4885,4.0118 4.5282,-4.2501 -2.423,0 0,-10.248 7.9839,7.9045 -1.6285,1.708 6.0375,-0.3178 0.3178,-6.1567 -1.6286,1.708 -11.2211,-11.0425 z"
         style="display:inline;fill:#141414;fill-opacity:1;fill-rule:evenodd;stroke:none;stroke-width:1px;stroke-linecap:butt;stroke-linejoin:miter;stroke-opacity:1" />
      <path
         sodipodi:nodetypes="cccccsczzcccczszzsczzzzcssszczczsccccccc"
         inkscape:connector-curvature="0"
         id="path6064"
         d="m 95.728859,1046.1063 -0.7631,-0.881 -1.1397,-0.9321 -1.4517,0.5256 -4.0709,1.3272 c 0,0 -3.5194,1.9989 -7.1824,3.0005 -2.5538,0.6983 -6.587,2.0086 -6.587,2.0086 0,0 -0.6044,0.4278 -1.1522,1.4384 -0.5478,1.0107 -2.2811,4.1428 -2.6183,5.2531 -0.3371,1.1103 0.2315,1.8243 0.2315,1.8243 l 1.0565,1.4565 1.7516,-1.5859 1.9134,-0.046 c 0,0 -1.2347,-0.9036 -0.968,-1.4605 0.2667,-0.5569 0.8094,-0.8305 1.1365,-1.3352 0.2148,-0.3314 0.17,-0.618 0.5192,-0.7427 0.3492,-0.1247 0.6704,0.02 0.968,0.337 0.2976,0.3174 0.2528,0.8389 0.4692,1.2154 0.1195,0.2079 0.4494,0.5618 0.4494,0.5618 0,0 -0.2941,0.9439 -0.6741,1.5167 -0.3799,0.5727 -1.2831,1.2907 -1.6852,1.7975 -0.402,0.5069 -0.7952,1.0701 -0.9056,1.5769 -0.1104,0.5067 -0.02,0.9538 0.1192,1.288 0.1387,0.3342 0.5617,0.6741 0.5617,0.6741 0,0 0.539,0.086 0.7865,0 0.6938,-0.2423 1.1228,-0.9107 1.7253,-1.3725 0.5838,-0.4474 1.0699,-0.7171 1.4098,-1.1036 0.6603,-0.7509 1.0836,-1.5437 1.7486,-1.9588 0.665,-0.4151 2.5256,-0.846 2.5256,-0.846 0,0 1.9684,-0.3961 2.7894,-0.6248 0.821,-0.2286 1.991,-1.1859 1.991,-1.1859 0,0 0.9619,-0.6868 1.3612,-1.1927 0.3993,-0.5058 0.6901,-1.1405 0.8858,-1.7708 0.2016,-0.65 0.2212,-1.8237 0.2212,-1.8237 l 4.9184,-1.8424 3.1263,-0.6833 -0.5932,-0.9239 -0.8531,-1.1839 -1.0775,-1.3327 z"
         style="display:inline;fill:#f4d195;fill-opacity:1;fill-rule:evenodd;stroke:#191919;stroke-width:0.40000001;stroke-linecap:butt;stroke-linejoin:miter;stroke-miterlimit:4;stroke-dasharray:none;stroke-opacity:1" />
      <path
         sodipodi:nodetypes="czzscsc"
         inkscape:connector-curvature="0"
         id="path6066"
         d="m 80.299059,1061.7086 c 0,0 0.6645,0.9547 0.9269,1.1516 0.2625,0.1969 0.6337,0.3679 1.4746,-0.028 0.8408,-0.396 0.5424,-0.6946 0.5758,-1.1375 0.042,-0.5628 -0.6384,-1.67 -0.6384,-1.67 0,0 -0.9666,0.2737 -1.3226,0.5152 -0.4584,0.3108 -1.0163,1.1688 -1.0163,1.1688 z"
         style="display:inline;fill:#f4d195;fill-opacity:1;fill-rule:evenodd;stroke:#191919;stroke-width:0.40000001;stroke-linecap:butt;stroke-linejoin:miter;stroke-miterlimit:4;stroke-dasharray:none;stroke-opacity:1" />
      <path
         sodipodi:nodetypes="czzscc"
         inkscape:connector-curvature="0"
         id="path6068"
         d="m 83.374659,1061.7367 c 0,0 0.8483,-0.1343 1.0954,-0.3792 0.2471,-0.2448 0.382,-0.6018 0.3932,-0.8847 0.011,-0.2829 0.1779,-0.9661 -0.1634,-1.0278 -0.538,-0.097 -2.0211,0.5024 -2.0211,0.5024 z"
         style="display:inline;fill:#f4d195;fill-opacity:1;fill-rule:evenodd;stroke:#191919;stroke-width:0.40000001;stroke-linecap:butt;stroke-linejoin:miter;stroke-miterlimit:4;stroke-dasharray:none;stroke-opacity:1" />
    </g>
  </g>
</svg>
