<?xml version="1.0" encoding="UTF-8" standalone="no"?>
<!-- Created with Inkscape (http://www.inkscape.org/) -->

<svg
   xmlns:dc="http://purl.org/dc/elements/1.1/"
   xmlns:cc="http://creativecommons.org/ns#"
   xmlns:rdf="http://www.w3.org/1999/02/22-rdf-syntax-ns#"
   xmlns:svg="http://www.w3.org/2000/svg"
   xmlns="http://www.w3.org/2000/svg"
   xmlns:sodipodi="http://sodipodi.sourceforge.net/DTD/sodipodi-0.dtd"
   xmlns:inkscape="http://www.inkscape.org/namespaces/inkscape"
   width="15mm"
   height="15mm"
   viewBox="0 0 53.149606 53.149606"
   id="svg10376"
   version="1.1"
   inkscape:version="0.91 r13725"
   sodipodi:docname="Fonction_Formation.svg">
  <defs
     id="defs10378" />
  <sodipodi:namedview
     id="base"
     pagecolor="#ffffff"
     bordercolor="#666666"
     borderopacity="1.0"
     inkscape:pageopacity="0.0"
     inkscape:pageshadow="2"
     inkscape:zoom="5.6"
     inkscape:cx="43.297604"
     inkscape:cy="21.616754"
     inkscape:document-units="px"
     inkscape:current-layer="layer1"
     showgrid="false"
     inkscape:window-width="1301"
     inkscape:window-height="744"
     inkscape:window-x="65"
     inkscape:window-y="24"
     inkscape:window-maximized="1" />
  <metadata
     id="metadata10381">
    <rdf:RDF>
      <cc:Work
         rdf:about="">
        <dc:format>image/svg+xml</dc:format>
        <dc:type
           rdf:resource="http://purl.org/dc/dcmitype/StillImage" />
        <dc:title></dc:title>
      </cc:Work>
    </rdf:RDF>
  </metadata>
  <g
     inkscape:groupmode="layer"
     id="layer2"
     inkscape:label="Rond" />
  <g
     inkscape:label="Calque 1"
     inkscape:groupmode="layer"
     id="layer1"
     transform="translate(0,-999.21258)">
    <path
       style="display:inline;fill:none;fill-rule:evenodd;stroke:none;stroke-width:1px;stroke-linecap:butt;stroke-linejoin:miter;stroke-opacity:1"
       d="m 1.8039929,1001.309 49.6063001,0 0,49.6063 -49.6063001,0 z"
       id="path5102-20-0-7-8-82"
       inkscape:connector-curvature="0"
       inkscape:export-filename="D:\0-0-Opacite\graphik\pictogrammes\Déf\Université.png"
       inkscape:export-xdpi="300"
       inkscape:export-ydpi="300" />
    <g
       id="g4156">
      <ellipse
         ry="17.231503"
         rx="17.588646"
         cy="1025.2192"
         cx="28.214289"
         id="path4143"
         style="opacity:1;fill:#f5f5f5;fill-opacity:1;stroke:#b55700;stroke-width:1;stroke-miterlimit:4;stroke-dasharray:none;stroke-opacity:1" />
      <g
         inkscape:export-ydpi="300"
         inkscape:export-xdpi="300"
         inkscape:export-filename="D:\0-0-Opacite\graphik\pictogrammes\Déf\Université.png"
         style="display:inline;fill:#646464;fill-opacity:1"
         transform="matrix(0.0950796,0,0,0.0950796,55.049057,963.26856)"
         id="g7000">
        <g
           style="fill:#646464;fill-opacity:1"
           transform="translate(252.79068,-150.26019)"
           id="g7006">
          <path
             sodipodi:nodetypes="cczcccscc"
             inkscape:connector-curvature="0"
             id="path6992"
             d="m -543.88362,704.52886 -132.16691,25.49471 c 0,0 -9.60731,5.5517 -9.56537,9.93836 0.042,4.38668 8.85826,8.85827 8.85826,8.85827 l 132.87402,35.43307 150.59055,-35.43307 c 0,0 8.85827,-4.68244 8.85827,-8.85827 0,-4.17582 -8.85827,-8.85826 -8.85827,-8.85826 z"
             style="fill:#646464;fill-opacity:1;fill-rule:evenodd;stroke:#000000;stroke-width:0.5px;stroke-linecap:butt;stroke-linejoin:miter;stroke-opacity:1" />
          <path
             sodipodi:nodetypes="ccacccc"
             inkscape:connector-curvature="0"
             id="path6994"
             d="m -632.4663,775.39501 -17.71653,70.86614 c 0,0 69.24478,32.52315 106.29921,32.52315 37.05443,0 106.29921,-32.52315 106.29921,-32.52315 l -17.71653,-70.86614 -88.58268,17.71653 z"
             style="fill:#646464;fill-opacity:1;fill-rule:evenodd;stroke:#000000;stroke-width:0.5px;stroke-linecap:butt;stroke-linejoin:miter;stroke-opacity:1" />
          <path
             sodipodi:nodetypes="accacca"
             inkscape:connector-curvature="0"
             id="path6996"
             d="m -402.15134,766.53674 c -4.17582,0 -8.85826,8.85827 -8.85826,8.85827 l 0,70.86614 c 0,0 4.68244,8.85827 8.85826,8.85827 4.17583,0 8.85827,-8.85827 8.85827,-8.85827 l 0,-70.86614 c 0,0 -4.68244,-8.85827 -8.85827,-8.85827 z"
             style="fill:#646464;fill-opacity:1;fill-rule:evenodd;stroke:#000000;stroke-width:0.5px;stroke-linecap:butt;stroke-linejoin:miter;stroke-opacity:1" />
          <path
             sodipodi:nodetypes="accacca"
             inkscape:connector-curvature="0"
             id="path6998"
             d="m -402.15134,863.97768 c -4.17582,0 -8.85826,8.85827 -8.85826,8.85827 l 0,17.71654 c 0,0 4.68244,8.85826 8.85826,8.85826 4.17583,0 8.85827,-8.85826 8.85827,-8.85826 l 0,-17.71654 c 0,0 -4.68244,-8.85827 -8.85827,-8.85827 z"
             style="fill:#646464;fill-opacity:1;fill-rule:evenodd;stroke:#000000;stroke-width:0.5px;stroke-linecap:butt;stroke-linejoin:miter;stroke-opacity:1" />
        </g>
      </g>
    </g>
  </g>
</svg>
