<?xml version="1.0" encoding="UTF-8" standalone="no"?>
<!-- Created with Inkscape (http://www.inkscape.org/) -->

<svg
   xmlns:dc="http://purl.org/dc/elements/1.1/"
   xmlns:cc="http://creativecommons.org/ns#"
   xmlns:rdf="http://www.w3.org/1999/02/22-rdf-syntax-ns#"
   xmlns:svg="http://www.w3.org/2000/svg"
   xmlns="http://www.w3.org/2000/svg"
   xmlns:sodipodi="http://sodipodi.sourceforge.net/DTD/sodipodi-0.dtd"
   xmlns:inkscape="http://www.inkscape.org/namespaces/inkscape"
   width="102.45024mm"
   height="102.45024mm"
   viewBox="0 0 363.01267 363.01266"
   id="svg2"
   version="1.1"
   inkscape:version="0.91 r13725"
   sodipodi:docname="dessin.svg">
  <defs
     id="defs4" />
  <sodipodi:namedview
     id="base"
     pagecolor="#ffffff"
     bordercolor="#666666"
     borderopacity="1.0"
     inkscape:pageopacity="0.0"
     inkscape:pageshadow="2"
     inkscape:zoom="0.6895"
     inkscape:cx="343.47487"
     inkscape:cy="84.614508"
     inkscape:document-units="px"
     inkscape:current-layer="layer1"
     showgrid="false"
     inkscape:window-width="1301"
     inkscape:window-height="744"
     inkscape:window-x="65"
     inkscape:window-y="24"
     inkscape:window-maximized="1"
     fit-margin-top="0"
     fit-margin-left="0"
     fit-margin-right="0"
     fit-margin-bottom="0" />
  <metadata
     id="metadata7">
    <rdf:RDF>
      <cc:Work
         rdf:about="">
        <dc:format>image/svg+xml</dc:format>
        <dc:type
           rdf:resource="http://purl.org/dc/dcmitype/StillImage" />
        <dc:title></dc:title>
      </cc:Work>
    </rdf:RDF>
  </metadata>
  <g
     inkscape:label="Calque 1"
     inkscape:groupmode="layer"
     id="layer1"
     transform="translate(-203.90197,-361.68538)">
    <rect
       style="opacity:1;fill:none;fill-opacity:1;stroke:none;stroke-width:5;stroke-linecap:round;stroke-linejoin:round;stroke-miterlimit:4;stroke-dasharray:none;stroke-dashoffset:0;stroke-opacity:1"
       id="rect6160"
       width="379.86496"
       height="379.86496"
       x="782.08209"
       y="390.17868"
       inkscape:export-xdpi="300"
       inkscape:export-ydpi="300" />
    <g
       id="g4538">
      <circle
         inkscape:transform-center-y="-12.306427"
         inkscape:transform-center-x="118.96213"
         r="173.6021"
         cy="543.19171"
         cx="385.40829"
         id="path5962-9-0-9-9-3-4"
         style="display:inline;opacity:1;fill:#f5f5f5;fill-opacity:1;stroke:#076ed3;stroke-width:15.80846119;stroke-linecap:round;stroke-miterlimit:4;stroke-dasharray:none;stroke-dashoffset:0;stroke-opacity:1" />
      <path
         sodipodi:open="true"
         d="m 476.44515,439.53922 a 23.205221,22.480059 0 0 1 -23.13002,22.47994 23.205221,22.480059 0 0 1 -23.27993,-22.33423 23.205221,22.480059 0 0 1 22.97912,-22.62471 23.205221,22.480059 0 0 1 23.42888,22.18758"
         sodipodi:end="6.2702217"
         sodipodi:start="0"
         sodipodi:ry="22.480059"
         sodipodi:rx="23.205221"
         sodipodi:cy="439.53922"
         sodipodi:cx="453.23993"
         sodipodi:type="arc"
         id="path4440"
         style="fill:#050000;fill-opacity:1;stroke:#076ed3;stroke-width:7;stroke-miterlimit:4;stroke-dasharray:none;stroke-opacity:1" />
      <path
         sodipodi:open="true"
         d="m 345.70968,453.31735 a 23.205221,22.480059 0 0 1 -23.13565,22.47996 23.205221,22.480059 0 0 1 -23.27438,-22.34517 23.205221,22.480059 0 0 1 22.9961,-22.61394 23.205221,22.480059 0 0 1 23.41226,22.20957"
         sodipodi:end="6.2711931"
         sodipodi:start="0"
         sodipodi:ry="22.480059"
         sodipodi:rx="23.205221"
         sodipodi:cy="453.31735"
         sodipodi:cx="322.50446"
         sodipodi:type="arc"
         id="path4440-7"
         style="fill:#050000;fill-opacity:1;stroke:#07d347;stroke-width:7;stroke-miterlimit:4;stroke-dasharray:none;stroke-opacity:1" />
      <path
         sodipodi:open="true"
         d="m 457.49932,653.68628 a 23.205221,22.480059 0 0 1 -23.16916,22.48003 23.205221,22.480059 0 0 1 -23.24117,-22.41017 23.205221,22.480059 0 0 1 23.09693,-22.54968 23.205221,22.480059 0 0 1 23.31295,22.34009"
         sodipodi:end="6.2769697"
         sodipodi:start="0"
         sodipodi:ry="22.480059"
         sodipodi:rx="23.205221"
         sodipodi:cy="653.68628"
         sodipodi:cx="434.2941"
         sodipodi:type="arc"
         id="path4440-5"
         style="fill:#050000;fill-opacity:1;stroke:#d30755;stroke-width:7;stroke-miterlimit:4;stroke-dasharray:none;stroke-opacity:1" />
      <path
         sodipodi:open="true"
         d="m 498.94034,551.20813 a 30.456852,28.281364 0 0 1 -30.32913,28.28112 30.456852,28.281364 0 0 1 -30.5835,-28.04393 30.456852,28.281364 0 0 1 30.07263,-28.51632 30.456852,28.281364 0 0 1 30.83572,27.80476"
         sodipodi:end="6.2664113"
         sodipodi:start="0"
         sodipodi:ry="28.281364"
         sodipodi:rx="30.456852"
         sodipodi:cy="551.20813"
         sodipodi:cx="468.48349"
         sodipodi:type="arc"
         id="path4440-3"
         style="fill:#050000;fill-opacity:1;stroke:#d36c07;stroke-width:7;stroke-miterlimit:4;stroke-dasharray:none;stroke-opacity:1" />
      <path
         sodipodi:open="true"
         d="m 400.10182,537.0719 a 31.831432,31.106268 0 0 1 -31.81602,31.10626 31.831432,31.106268 0 0 1 -31.84683,-31.07614 31.831432,31.106268 0 0 1 31.78517,-31.13636 31.831432,31.106268 0 0 1 31.87762,31.04599"
         sodipodi:end="6.2812484"
         sodipodi:start="0"
         sodipodi:ry="31.106268"
         sodipodi:rx="31.831432"
         sodipodi:cy="537.0719"
         sodipodi:cx="368.27039"
         sodipodi:type="arc"
         id="path4440-56"
         style="fill:#050000;fill-opacity:1;stroke:#a607d3;stroke-width:7.15148258;stroke-miterlimit:4;stroke-dasharray:none;stroke-opacity:1" />
      <path
         sodipodi:open="true"
         d="m 318.89263,612.91461 a 23.205221,22.480059 0 0 1 -23.13565,22.47996 23.205221,22.480059 0 0 1 -23.27438,-22.34517 23.205221,22.480059 0 0 1 22.9961,-22.61394 23.205221,22.480059 0 0 1 23.41226,22.20957"
         sodipodi:end="6.2711931"
         sodipodi:start="0"
         sodipodi:ry="22.480059"
         sodipodi:rx="23.205221"
         sodipodi:cy="612.91461"
         sodipodi:cx="295.68741"
         sodipodi:type="arc"
         id="path4440-7-2"
         style="fill:#050000;fill-opacity:1;stroke:#ff1112;stroke-width:7;stroke-miterlimit:4;stroke-dasharray:none;stroke-opacity:1" />
      <path
         sodipodi:nodetypes="cc"
         inkscape:connector-curvature="0"
         id="path4490"
         d="m 346.22487,562.23647 -31.33851,34.18381"
         style="fill:none;fill-rule:evenodd;stroke:#000000;stroke-width:14.97702217;stroke-linecap:butt;stroke-linejoin:miter;stroke-miterlimit:4;stroke-dasharray:none;stroke-opacity:1" />
      <path
         inkscape:connector-curvature="0"
         id="path4507"
         d="m 386.48401,565.22847 34.28203,66.65741"
         style="fill:none;fill-rule:evenodd;stroke:#000000;stroke-width:10.85786057;stroke-linecap:butt;stroke-linejoin:miter;stroke-miterlimit:4;stroke-dasharray:none;stroke-opacity:1" />
      <path
         inkscape:connector-curvature="0"
         id="path4511"
         d="m 403.36864,541.63994 31.27883,4.61491"
         style="fill:none;fill-rule:evenodd;stroke:#000000;stroke-width:10.62992126;stroke-linecap:butt;stroke-linejoin:miter;stroke-opacity:1;stroke-miterlimit:4;stroke-dasharray:none" />
      <path
         inkscape:connector-curvature="0"
         id="path4513"
         d="M 462.29904,520.14045 454.68332,465.2008"
         style="fill:none;fill-rule:evenodd;stroke:#000000;stroke-width:14.59824848;stroke-linecap:butt;stroke-linejoin:miter;stroke-miterlimit:4;stroke-dasharray:none;stroke-opacity:1" />
      <path
         inkscape:connector-curvature="0"
         id="path4515"
         d="M 349.73232,508.67651 333.94069,476.66473"
         style="fill:none;fill-rule:evenodd;stroke:#000000;stroke-width:11.47455215;stroke-linecap:butt;stroke-linejoin:miter;stroke-miterlimit:4;stroke-dasharray:none;stroke-opacity:1" />
      <path
         inkscape:connector-curvature="0"
         id="path4517"
         d="m 349.55534,447.44254 77.88606,-6.96973"
         style="fill:none;fill-rule:evenodd;stroke:#000000;stroke-width:14.63258934;stroke-linecap:butt;stroke-linejoin:miter;stroke-miterlimit:4;stroke-dasharray:none;stroke-opacity:1" />
      <path
         sodipodi:open="true"
         d="m 279.92226,531.89734 a 23.205221,22.480059 0 0 1 -23.13565,22.47996 23.205221,22.480059 0 0 1 -23.27437,-22.34517 23.205221,22.480059 0 0 1 22.99609,-22.61394 23.205221,22.480059 0 0 1 23.41226,22.20957"
         sodipodi:end="6.2711931"
         sodipodi:start="0"
         sodipodi:ry="22.480059"
         sodipodi:rx="23.205221"
         sodipodi:cy="531.89734"
         sodipodi:cx="256.71704"
         sodipodi:type="arc"
         id="path4440-7-1"
         style="fill:#050000;fill-opacity:1;stroke:#07d347;stroke-width:7;stroke-miterlimit:4;stroke-dasharray:none;stroke-opacity:1" />
      <path
         inkscape:connector-curvature="0"
         id="path4534"
         d="M 283.52753,590.16528 265.80032,556.18504"
         style="fill:none;fill-rule:evenodd;stroke:#000000;stroke-width:11.24837303;stroke-linecap:butt;stroke-linejoin:miter;stroke-miterlimit:4;stroke-dasharray:none;stroke-opacity:1" />
    </g>
  </g>
</svg>
