<?xml version="1.0" encoding="UTF-8" standalone="no"?>
<!-- Created with Inkscape (http://www.inkscape.org/) -->

<svg
   xmlns:dc="http://purl.org/dc/elements/1.1/"
   xmlns:cc="http://creativecommons.org/ns#"
   xmlns:rdf="http://www.w3.org/1999/02/22-rdf-syntax-ns#"
   xmlns:svg="http://www.w3.org/2000/svg"
   xmlns="http://www.w3.org/2000/svg"
   xmlns:sodipodi="http://sodipodi.sourceforge.net/DTD/sodipodi-0.dtd"
   xmlns:inkscape="http://www.inkscape.org/namespaces/inkscape"
   width="48"
   height="48"
   viewBox="0 0 45 45.000001"
   id="svg4958"
   version="1.1"
   inkscape:version="0.92.1 r15371"
   sodipodi:docname="Fonction_Recyclerie.svg"
   inkscape:export-filename="D:\0-0-Agata\graphik\pictogrammes\Pictos-fonctions\picto-loupe.png"
   inkscape:export-xdpi="300"
   inkscape:export-ydpi="300">
  <defs
     id="defs4960" />
  <sodipodi:namedview
     id="base"
     pagecolor="#ffffff"
     bordercolor="#666666"
     borderopacity="1.0"
     inkscape:pageopacity="0.0"
     inkscape:pageshadow="2"
     inkscape:zoom="7.9195959"
     inkscape:cx="4.0129833"
     inkscape:cy="22.261615"
     inkscape:document-units="px"
     inkscape:current-layer="g21531"
     showgrid="true"
     units="px"
     inkscape:window-width="1366"
     inkscape:window-height="705"
     inkscape:window-x="-8"
     inkscape:window-y="-8"
     inkscape:window-maximized="1">
    <inkscape:grid
       type="xygrid"
       id="grid6185"
       originx="0"
       originy="0"
       spacingx="1"
       spacingy="1" />
  </sodipodi:namedview>
  <metadata
     id="metadata4963">
    <rdf:RDF>
      <cc:Work
         rdf:about="">
        <dc:format>image/svg+xml</dc:format>
        <dc:type
           rdf:resource="http://purl.org/dc/dcmitype/StillImage" />
        <dc:title></dc:title>
      </cc:Work>
    </rdf:RDF>
  </metadata>
  <g
     inkscape:label="Calque 1"
     inkscape:groupmode="layer"
     id="layer1"
     transform="translate(0,-1007.3622)">
    <rect
       style="opacity:1;fill:none;fill-opacity:1;stroke:none;stroke-width:1.95103896;stroke-linecap:round;stroke-linejoin:round;stroke-miterlimit:4;stroke-dasharray:none;stroke-dashoffset:0;stroke-opacity:1"
       id="rect5524-3"
       width="45"
       height="45"
       x="-47.501274"
       y="1008.649" />
    <path
       style="display:inline;fill:none;fill-rule:evenodd;stroke:none;stroke-width:0.60000008px;stroke-linecap:butt;stroke-linejoin:miter;stroke-opacity:1"
       d="M -20.20591,1022.9818 H 9.5578782 v 29.7638 H -20.20591 Z"
       id="path5102-0"
       inkscape:connector-curvature="0"
       inkscape:export-filename="D:\0-0-Opacite\graphik\pictogrammes\Déf\Sénat.png"
       inkscape:export-xdpi="300"
       inkscape:export-ydpi="300" />
    <g
       style="display:inline"
       id="g21531"
       transform="matrix(0.60000001,0,0,0.60000001,-693.46938,1500.3311)">
      <g
         id="g7544"
         transform="translate(0.66741257,0.84288258)">
        <rect
           inkscape:export-ydpi="300"
           inkscape:export-xdpi="300"
           inkscape:export-filename="D:\0-0-Agata\graphik\pictogrammes\Déf-1\visu.png"
           y="-822.4577"
           x="1155.1149"
           height="75"
           width="75"
           id="rect5524"
           style="opacity:1;fill:none;fill-opacity:1;stroke:none;stroke-width:3.25173163;stroke-linecap:round;stroke-linejoin:round;stroke-miterlimit:4;stroke-dasharray:none;stroke-dashoffset:0;stroke-opacity:1" />
        <rect
           inkscape:export-ydpi="300"
           inkscape:export-xdpi="300"
           inkscape:export-filename="D:\0-0-Agata\graphik\pictogrammes\Déf-1\visu.png"
           y="-822.4577"
           x="1155.1149"
           height="75"
           width="75"
           id="rect5524-31"
           style="opacity:1;fill:none;fill-opacity:1;stroke:none;stroke-width:3.25173163;stroke-linecap:round;stroke-linejoin:round;stroke-miterlimit:4;stroke-dasharray:none;stroke-dashoffset:0;stroke-opacity:1" />
        <g
           id="g6935"
           style="display:inline"
           transform="matrix(1.6666667,0,0,1.6666667,-1694.755,-1619.512)">
          <circle
             style="display:inline;opacity:1;fill:#f5f5f5;fill-opacity:1;stroke:#066b8e;stroke-width:1.87800574;stroke-linecap:round;stroke-miterlimit:4;stroke-dasharray:none;stroke-dashoffset:0;stroke-opacity:1"
             id="path5962-9-0-9-9-3-4-2-3"
             cx="1732.4219"
             cy="500.73257"
             r="20.623497" />
          <g
             id="g6916"
             transform="matrix(0.93068532,0,0,0.93068532,90.069553,75.86499)">
            <path
               sodipodi:nodetypes="cccccccccccccccc"
               inkscape:connector-curvature="0"
               d="m 1763.9408,462.14845 h -7.5172 l -2.4177,3.89909 c 0,0 -1.2529,2.26277 -0.4433,4.36214 3.4684,-0.0268 10.3785,0 10.3785,0 v -8.26123 z m -10.9871,3.27865 3.6234,-6.07629 1.8881,0.94969 -2.5723,-7.38057 -8.0017,1.11554 1.6406,1.22645 -2.9938,4.93892 c 0,0 3.7132,6.53405 5.6794,9.99264 -0.5958,-2.4177 0.668,-4.64877 0.7363,-4.76638 z"
               id="path538-1-3"
               style="fill:#4ac50e;fill-opacity:1;stroke-width:0.35212606" />
            <path
               sodipodi:nodetypes="ccccccccccccccccc"
               inkscape:connector-curvature="0"
               d="m 1769.9353,454.36767 c 0.9352,1.85323 3.6966,6.65518 3.6966,6.65518 l 4.6935,0.0127 c 0,0 2.7356,-0.21233 3.954,-1.84514 -1.8022,-2.96384 -3.479,-5.96325 -5.3034,-8.92041 -2.3965,1.18667 -4.7202,2.63743 -7.0407,4.0977 z m 8.3964,7.88973 -6.9724,0.004 v -2.10782 l -5.9591,6.18932 5.9591,6.10234 v -2.00007 h 5.7752 c 0,0 3.7054,-6.53863 5.6671,-10.00039 -1.7705,1.75218 -4.3336,1.81099 -4.4699,1.8131 z"
               id="path538-1-3-4"
               style="display:inline;fill:#0ec548;fill-opacity:1;stroke-width:0.35212606" />
            <path
               sodipodi:nodetypes="ccccccccccccccc"
               inkscape:connector-curvature="0"
               d="m 1752.9846,449.65436 c 1.6733,-3.04695 3.4564,-5.98298 5.147,-9.01232 2.2244,0.33417 3.554,2.53003 3.554,2.53003 l 2.3022,4.08924 c 0,0 -2.8152,4.7699 -3.9663,6.49778 -2.4156,-1.29864 -4.8228,-2.60538 -7.0369,-4.10473 z m 9.7602,-7.09112 3.4924,6.15341 -1.7599,1.17258 7.995,1.07081 2.6775,-7.16929 -1.8761,0.82151 -2.8152,-5.0442 h -11.4948 c 2.3965,0.67819 3.7124,2.87757 3.7811,2.99518 z"
               id="path538-1-3-9"
               style="display:inline;fill:#0ec592;fill-opacity:1;stroke-width:0.35212606" />
          </g>
        </g>
      </g>
    </g>
  </g>
</svg>
