<?xml version="1.0" encoding="UTF-8" standalone="no"?>
<!-- Created with Inkscape (http://www.inkscape.org/) -->

<svg
   xmlns:dc="http://purl.org/dc/elements/1.1/"
   xmlns:cc="http://creativecommons.org/ns#"
   xmlns:rdf="http://www.w3.org/1999/02/22-rdf-syntax-ns#"
   xmlns:svg="http://www.w3.org/2000/svg"
   xmlns="http://www.w3.org/2000/svg"
   xmlns:sodipodi="http://sodipodi.sourceforge.net/DTD/sodipodi-0.dtd"
   xmlns:inkscape="http://www.inkscape.org/namespaces/inkscape"
   width="64"
   height="64"
   viewBox="0 0 60.000001 60.000001"
   id="svg5612"
   version="1.1"
   inkscape:version="0.92.1 r15371"
   inkscape:export-filename="F:\0-0-Agata\graphik\pictogrammes\Picto-visu-recyclage\opérateur-tri.png"
   inkscape:export-xdpi="300"
   inkscape:export-ydpi="300"
   sodipodi:docname="opérateur-tri.svg">
  <defs
     id="defs5614" />
  <sodipodi:namedview
     id="base"
     pagecolor="#ffffff"
     bordercolor="#666666"
     borderopacity="1.0"
     inkscape:pageopacity="0.0"
     inkscape:pageshadow="2"
     inkscape:zoom="5.6"
     inkscape:cx="-1.5620451"
     inkscape:cy="32.193993"
     inkscape:document-units="px"
     inkscape:current-layer="layer1"
     showgrid="false"
     units="px"
     inkscape:window-width="1366"
     inkscape:window-height="705"
     inkscape:window-x="-8"
     inkscape:window-y="-8"
     inkscape:window-maximized="1"
     showguides="false" />
  <metadata
     id="metadata5617">
    <rdf:RDF>
      <cc:Work
         rdf:about="">
        <dc:format>image/svg+xml</dc:format>
        <dc:type
           rdf:resource="http://purl.org/dc/dcmitype/StillImage" />
        <dc:title></dc:title>
      </cc:Work>
    </rdf:RDF>
  </metadata>
  <g
     inkscape:label="Calque 1"
     inkscape:groupmode="layer"
     id="layer1"
     transform="translate(0,-992.36216)">
    <rect
       style="opacity:1;fill:none;fill-opacity:1;stroke:none;stroke-width:5;stroke-linecap:round;stroke-linejoin:round;stroke-miterlimit:4;stroke-dasharray:none;stroke-dashoffset:0;stroke-opacity:1"
       id="rect6160"
       width="60"
       height="60"
       x="-4.5373536e-008"
       y="992.36218"
       inkscape:export-xdpi="300"
       inkscape:export-ydpi="300" />
    <g
       transform="matrix(1.0404,0,0,1.0404,-2037.795,169.07314)"
       style="display:inline"
       id="g6107">
      <circle
         r="26.355827"
         cy="820.15479"
         cx="1987.5"
         id="path5962-9-0-9-9-3-4"
         style="display:inline;opacity:1;fill:#f5f5f5;fill-opacity:1;stroke:#178e06;stroke-width:2.4000001;stroke-linecap:round;stroke-miterlimit:4;stroke-dasharray:none;stroke-dashoffset:0;stroke-opacity:1" />
      <path
         id="path6074"
         style="fill:#2f8f00;fill-opacity:1;fill-rule:evenodd;stroke:none;stroke-width:0.46574149"
         d="m 1987.4998,799.19642 c -11.0791,0 -20.056,8.97687 -20.056,20.05601 0,11.0791 8.9769,20.07054 20.056,20.07054 3.7526,0 7.2579,-1.04399 10.261,-2.83812 l 2.3287,4.62831 7.3063,-14.04502 -15.6316,-2.47425 2.3579,4.67197 c -1.8971,1.25807 -4.1753,1.99396 -6.6224,1.99396 -6.6283,0 -12.0073,-5.37887 -12.0073,-12.00739 0,-6.62855 5.379,-11.99286 12.0073,-11.99286 6.6286,0 12.0076,5.36431 12.0076,11.99286 0,0.0677 0,0.13633 0,0.20375 l 8.0049,1.28079 c 0.035,-0.48636 0.044,-0.98917 0.044,-1.48454 0,-11.07914 -8.977,-20.056 -20.056,-20.056 z"
         inkscape:connector-curvature="0" />
    </g>
  </g>
</svg>
