<?xml version="1.0" encoding="UTF-8" standalone="no"?>
<!-- Created with Inkscape (http://www.inkscape.org/) -->

<svg
   xmlns:dc="http://purl.org/dc/elements/1.1/"
   xmlns:cc="http://creativecommons.org/ns#"
   xmlns:rdf="http://www.w3.org/1999/02/22-rdf-syntax-ns#"
   xmlns:svg="http://www.w3.org/2000/svg"
   xmlns="http://www.w3.org/2000/svg"
   xmlns:sodipodi="http://sodipodi.sourceforge.net/DTD/sodipodi-0.dtd"
   xmlns:inkscape="http://www.inkscape.org/namespaces/inkscape"
   width="64"
   height="64"
   viewBox="0 0 60.000001 60.000001"
   id="svg5612"
   version="1.1"
   inkscape:version="0.92.1 r15371"
   inkscape:export-filename="F:\0-0-Agata\graphik\pictogrammes\Picto-visu-recyclage\eco-organisme.png"
   inkscape:export-xdpi="300"
   inkscape:export-ydpi="300"
   sodipodi:docname="distribution.svg">
  <defs
     id="defs5614" />
  <sodipodi:namedview
     id="base"
     pagecolor="#ffffff"
     bordercolor="#666666"
     borderopacity="1.0"
     inkscape:pageopacity="0.0"
     inkscape:pageshadow="2"
     inkscape:zoom="5.6"
     inkscape:cx="-2.0892857"
     inkscape:cy="32.193993"
     inkscape:document-units="px"
     inkscape:current-layer="layer1"
     showgrid="false"
     units="px"
     inkscape:window-width="1366"
     inkscape:window-height="705"
     inkscape:window-x="-8"
     inkscape:window-y="-8"
     inkscape:window-maximized="1"
     showguides="false" />
  <metadata
     id="metadata5617">
    <rdf:RDF>
      <cc:Work
         rdf:about="">
        <dc:format>image/svg+xml</dc:format>
        <dc:type
           rdf:resource="http://purl.org/dc/dcmitype/StillImage" />
        <dc:title></dc:title>
      </cc:Work>
    </rdf:RDF>
  </metadata>
  <g
     inkscape:label="Calque 1"
     inkscape:groupmode="layer"
     id="layer1"
     transform="translate(0,-992.36216)">
    <rect
       style="opacity:1;fill:none;fill-opacity:1;stroke:none;stroke-width:5;stroke-linecap:round;stroke-linejoin:round;stroke-miterlimit:4;stroke-dasharray:none;stroke-dashoffset:0;stroke-opacity:1"
       id="rect6160"
       width="60"
       height="60"
       x="1.9026947e-009"
       y="992.36218"
       inkscape:export-xdpi="300"
       inkscape:export-ydpi="300" />
    <g
       transform="matrix(1.0546771,0,0,1.0546771,-2150.2153,188.81817)"
       style="display:inline"
       id="g3811">
      <circle
         r="26.355827"
         cy="790.33099"
         cx="2067.1875"
         id="path5962-9-0-9-9-3-4-7"
         style="display:inline;opacity:1;fill:#f5f5f5;fill-opacity:1;stroke:#d47303;stroke-width:2.4000001;stroke-linecap:round;stroke-miterlimit:4;stroke-dasharray:none;stroke-dashoffset:0;stroke-opacity:1" />
      <g
         style="fill:#815c14;fill-opacity:1"
         transform="matrix(0.50953156,0,0,0.50953156,2050.7813,764.7937)"
         id="g3692">
        <path
           style="fill:#815c14;fill-opacity:1"
           inkscape:connector-curvature="0"
           d="m 12.07,69.712 -8.933,8.379 c -2.819,2.645 -3.946,6.022 -2.518,7.546 1.427,1.521 4.871,0.613 7.689,-2.033 l 5.979,-5.608 z"
           id="path3690" />
      </g>
      <circle
         style="fill:#f89f3e;fill-opacity:1;stroke-width:0.50953156"
         cx="2057.0215"
         cy="774.1604"
         r="3.3506796"
         id="circle3694" />
      <rect
         style="fill:#d47303;fill-opacity:1;stroke-width:0.50950736"
         x="-1529.9078"
         y="-1630.8986"
         transform="rotate(154.12427)"
         width="11.875598"
         height="11.586706"
         id="rect3696" />
      <path
         style="fill:#815c14;fill-opacity:1;stroke-width:0.50953156"
         inkscape:connector-curvature="0"
         d="m 2086.2794,801.97014 -9.1833,4.45585 -8.8002,-18.13881 c 0.3857,-0.35515 0.6293,-0.86315 0.6293,-1.42974 0,-1.07461 -0.8718,-1.94591 -1.9464,-1.94591 h -2.245 l -5.0225,-4.71622 c 0,0 0,0 0,0 -0.5243,-0.69908 -1.3151,-1.18619 -2.2215,-1.31154 -0.015,-0.003 -0.032,-0.004 -0.047,-0.006 -0.042,-0.005 -0.085,-0.0102 -0.1274,-0.0133 -0.029,-0.003 -0.058,-0.005 -0.088,-0.007 -0.059,-0.004 -0.1177,-0.006 -0.1773,-0.006 -0.01,0 -0.012,-5.1e-4 -0.019,-5.1e-4 -5e-4,0 0,0 0,0 0,0 0,0 -0.01,0 -1.8532,0 -3.3548,1.50159 -3.3548,3.35475 v 11.40485 h 2.432 l 2.8422,10.92334 0.016,-0.004 1.0078,3.75882 c 0.2783,1.03842 1.3467,1.65393 2.3882,1.37522 1.04,-0.27871 1.658,-1.34619 1.3798,-2.38512 l -1.0068,-3.75881 -2.3739,-9.90886 h 0.025 v -7.70921 l 2.7067,2.90229 h 3.8917 c 0.021,0 0.04,-0.002 0.061,-0.003 l 8.8373,18.21677 0.5915,1.2188 10.4022,-5.04742 z"
         id="path3698" />
      <circle
         style="fill:#000346;fill-opacity:1;stroke-width:0.50953156"
         cx="2070.8711"
         cy="806.36182"
         r="3.3532269"
         id="circle3704" />
    </g>
  </g>
</svg>
