<?xml version="1.0" encoding="UTF-8" standalone="no"?>
<!-- Created with Inkscape (http://www.inkscape.org/) -->

<svg
   xmlns:dc="http://purl.org/dc/elements/1.1/"
   xmlns:cc="http://creativecommons.org/ns#"
   xmlns:rdf="http://www.w3.org/1999/02/22-rdf-syntax-ns#"
   xmlns:svg="http://www.w3.org/2000/svg"
   xmlns="http://www.w3.org/2000/svg"
   xmlns:sodipodi="http://sodipodi.sourceforge.net/DTD/sodipodi-0.dtd"
   xmlns:inkscape="http://www.inkscape.org/namespaces/inkscape"
   width="45"
   height="45"
   viewBox="0 0 45 45.000001"
   id="svg4958"
   version="1.1"
   inkscape:version="0.91 r13725"
   sodipodi:docname="Culture.svg"
   inkscape:export-filename="D:\0-0-Agata\graphik\pictogrammes\Pictos-fonctions\picto-loupe.png"
   inkscape:export-xdpi="300"
   inkscape:export-ydpi="300">
  <defs
     id="defs4960" />
  <sodipodi:namedview
     id="base"
     pagecolor="#ffffff"
     bordercolor="#666666"
     borderopacity="1.0"
     inkscape:pageopacity="0.0"
     inkscape:pageshadow="2"
     inkscape:zoom="2.8"
     inkscape:cx="118.72649"
     inkscape:cy="-26.710985"
     inkscape:document-units="px"
     inkscape:current-layer="layer1"
     showgrid="false"
     units="px"
     inkscape:window-width="1366"
     inkscape:window-height="705"
     inkscape:window-x="-8"
     inkscape:window-y="-8"
     inkscape:window-maximized="1"
     showguides="true"
     inkscape:guide-bbox="true">
    <inkscape:grid
       type="xygrid"
       id="grid6185" />
  </sodipodi:namedview>
  <metadata
     id="metadata4963">
    <rdf:RDF>
      <cc:Work
         rdf:about="">
        <dc:format>image/svg+xml</dc:format>
        <dc:type
           rdf:resource="http://purl.org/dc/dcmitype/StillImage" />
        <dc:title></dc:title>
      </cc:Work>
    </rdf:RDF>
  </metadata>
  <g
     inkscape:label="Calque 1"
     inkscape:groupmode="layer"
     id="layer1"
     transform="translate(0,-1007.3622)">
    <rect
       style="opacity:1;fill:none;fill-opacity:1;stroke:none;stroke-width:1.95103896;stroke-linecap:round;stroke-linejoin:round;stroke-miterlimit:4;stroke-dasharray:none;stroke-dashoffset:0;stroke-opacity:1"
       id="rect5524"
       width="45"
       height="45"
       x="2.091217e-009"
       y="1007.3622"
       inkscape:export-filename="D:\0-0-Agata\graphik\pictogrammes\Picto-legendes\DEA.png"
       inkscape:export-xdpi="300"
       inkscape:export-ydpi="300" />
    <rect
       style="opacity:1;fill:none;fill-opacity:1;stroke:none;stroke-width:1.95103896;stroke-linecap:round;stroke-linejoin:round;stroke-miterlimit:4;stroke-dasharray:none;stroke-dashoffset:0;stroke-opacity:1"
       id="rect5524-31"
       width="45"
       height="45"
       x="2.091217e-009"
       y="1007.3622"
       inkscape:export-filename="D:\0-0-Agata\graphik\pictogrammes\Picto-legendes\DEA.png"
       inkscape:export-xdpi="300"
       inkscape:export-ydpi="300" />
    <rect
       style="opacity:1;fill:none;fill-opacity:1;stroke:none;stroke-width:1.95103896;stroke-linecap:round;stroke-linejoin:round;stroke-miterlimit:4;stroke-dasharray:none;stroke-dashoffset:0;stroke-opacity:1"
       id="rect5524-8"
       width="45"
       height="45"
       x="2.091217e-009"
       y="1007.3622"
       inkscape:export-xdpi="300"
       inkscape:export-ydpi="300" />
    <g
       transform="matrix(0.8332316,0,0,0.8332316,-1575.2189,308.8399)"
       style="display:inline"
       id="g8385"
       inkscape:export-xdpi="300"
       inkscape:export-ydpi="300">
      <circle
         inkscape:export-ydpi="300"
         inkscape:export-xdpi="300"
         inkscape:export-filename="D:\0-0-Opacite\graphik\pictogrammes\Déf\Evènement.png"
         r="24.80315"
         cy="865.33246"
         cx="1917.4968"
         id="path5087-23-5-9-3-6-9-7-5"
         style="display:inline;opacity:1;fill:#fffb89;fill-opacity:1;stroke:#dd8000;stroke-width:2;stroke-miterlimit:4;stroke-dasharray:none;stroke-dashoffset:0;stroke-opacity:0.99215686" />
      <g
         transform="translate(13.25,2.5)"
         id="g8366">
        <path
           style="display:inline;fill:#0f0f0f;fill-opacity:1"
           inkscape:connector-curvature="0"
           class="st0"
           d="m 1905.5331,845.06452 c -1.0002,-4.69255 -4.631,1.12285 -10.9262,3.00826 -6.4885,1.95243 -11.3715,-2.56416 -9.8671,2.84064 3.1855,11.38781 10.6488,18.07469 15.784,16.43229 0.4035,-0.1257 1.5128,-0.36868 1.8911,-0.54467 0.3194,-2.68983 0.9414,-5.60591 2.1348,-8.61416 0.9666,-2.43846 1.3565,-3.50026 2.5499,-2.42767 0.1261,-3.06691 -0.5075,-5.70887 -1.5665,-10.69469 z"
           id="path8250-1"
           sodipodi:nodetypes="cccccccc" />
        <path
           style="fill:#e0b15e;fill-opacity:1"
           inkscape:connector-curvature="0"
           class="st0"
           d="m 1906.4509,844.03447 c -1.0962,-5.15865 -5.0757,1.23438 -11.9755,3.30706 -7.1115,2.14637 -12.4635,-2.81884 -10.8147,3.12282 3.4914,12.51894 11.6715,19.87002 17.2999,18.06449 0.4421,-0.13818 1.6581,-0.40532 2.0727,-0.59877 0.3501,-2.95702 1.0317,-6.16275 2.3399,-9.46981 1.0592,-2.68066 1.8976,-2.54248 3.2057,-1.36336 0.1381,-3.37154 -0.9673,-7.58137 -2.128,-13.06243 z m -14.9233,10.64892 c -1.7594,0.23951 -3.0767,1.64893 -3.132,1.28045 -0.055,-0.37769 1.1791,-2.38587 2.9478,-2.6346 1.7595,-0.2395 3.39,1.38179 3.4452,1.75026 0.046,0.37769 -1.5014,-0.63562 -3.261,-0.39611 z m 8.4842,8.27226 c -2.1924,0.68169 -5.0665,-0.82906 -5.3337,-1.68577 -0.2671,-0.8567 2.174,-0.44217 4.3757,-1.12385 2.2015,-0.68168 4.1913,-2.38587 4.4585,-1.52917 0.2579,0.85671 -1.308,3.65712 -3.5005,4.33879 z m 1.7687,-11.29375 c -1.6029,0.76458 -2.432,2.50563 -2.5977,2.16479 -0.1658,-0.34084 0.4053,-2.6346 2.0081,-3.39919 1.6029,-0.76458 3.648,0.28557 3.8138,0.62641 0.1565,0.34084 -1.6213,-0.1566 -3.2242,0.60799 z"
           id="path8250" />
      </g>
      <g
         transform="translate(-8.5,1.625)"
         id="g8362">
        <path
           style="display:inline;fill:#0f0f0f;fill-opacity:1"
           inkscape:connector-curvature="0"
           class="st0"
           d="m 1938.8243,865.72895 c -6.8249,-2.51871 -8.0797,-9.56929 -10.2915,-3.94508 -4.6673,11.8533 -2.609,22.43368 2.8527,24.34754 5.4618,1.91387 11.5554,-0.51457 18.7595,-15.91572 2.1937,-4.68534 -4.6944,-2.04025 -11.3207,-4.48674 z"
           id="path8252-8"
           sodipodi:nodetypes="ccscc" />
        <path
           style="fill:#b00f0f;fill-opacity:1"
           inkscape:connector-curvature="0"
           class="st0"
           d="m 1938.836,865.57694 c -6.9642,-2.57011 -8.2446,-9.76458 -10.5016,-4.02559 -4.7625,12.0952 -2.6622,22.89151 2.911,24.84443 5.5732,1.95292 11.7912,-0.52508 19.1423,-16.24053 2.2385,-4.78096 -4.7902,-2.08189 -11.5517,-4.57831 z m -9.7922,2.56091 c 0.082,-0.36848 1.2804,1.14227 3.0122,1.53838 1.7411,0.38689 3.3624,-0.49745 3.2794,-0.12897 -0.082,0.36847 -1.8331,1.85159 -3.5741,1.46469 -1.7411,-0.39611 -2.8004,-2.50563 -2.7175,-2.8741 z m 8.6683,14.02047 c -0.3317,0.82907 -2.1831,-1.03173 -4.3112,-1.88844 -2.1279,-0.8567 -4.5966,-0.65404 -4.265,-1.4831 0.3316,-0.82908 3.3162,-2.09111 5.4534,-1.2344 2.1279,0.84749 3.4544,3.76766 3.1228,4.60594 z m 7.48,-7.74719 c -0.1934,0.32242 -2.3121,1.20676 -3.8505,0.31321 -1.5383,-0.89356 -1.9068,-3.23337 -1.7226,-3.55579 0.1934,-0.32241 0.8659,1.48311 2.4042,2.37667 1.5385,0.89355 3.3532,0.53428 3.1689,0.86591 z"
           id="path8252" />
      </g>
    </g>
  </g>
</svg>
