<?xml version="1.0" encoding="UTF-8" standalone="no"?>
<!-- Created with Inkscape (http://www.inkscape.org/) -->

<svg
   xmlns:dc="http://purl.org/dc/elements/1.1/"
   xmlns:cc="http://creativecommons.org/ns#"
   xmlns:rdf="http://www.w3.org/1999/02/22-rdf-syntax-ns#"
   xmlns:svg="http://www.w3.org/2000/svg"
   xmlns="http://www.w3.org/2000/svg"
   xmlns:sodipodi="http://sodipodi.sourceforge.net/DTD/sodipodi-0.dtd"
   xmlns:inkscape="http://www.inkscape.org/namespaces/inkscape"
   width="64"
   height="64"
   viewBox="0 0 60.000001 60.000001"
   id="svg5612"
   version="1.1"
   inkscape:version="0.92.1 r15371"
   inkscape:export-filename="F:\0-0-Agata\graphik\pictogrammes\Picto-visu-recyclage\eco-organisme.png"
   inkscape:export-xdpi="300"
   inkscape:export-ydpi="300"
   sodipodi:docname="artiste.svg">
  <defs
     id="defs5614" />
  <sodipodi:namedview
     id="base"
     pagecolor="#ffffff"
     bordercolor="#666666"
     borderopacity="1.0"
     inkscape:pageopacity="0.0"
     inkscape:pageshadow="2"
     inkscape:zoom="5.6"
     inkscape:cx="-2.0892857"
     inkscape:cy="32.193993"
     inkscape:document-units="px"
     inkscape:current-layer="layer1"
     showgrid="false"
     units="px"
     inkscape:window-width="1366"
     inkscape:window-height="705"
     inkscape:window-x="-8"
     inkscape:window-y="-8"
     inkscape:window-maximized="1"
     showguides="false" />
  <metadata
     id="metadata5617">
    <rdf:RDF>
      <cc:Work
         rdf:about="">
        <dc:format>image/svg+xml</dc:format>
        <dc:type
           rdf:resource="http://purl.org/dc/dcmitype/StillImage" />
        <dc:title></dc:title>
      </cc:Work>
    </rdf:RDF>
  </metadata>
  <g
     inkscape:label="Calque 1"
     inkscape:groupmode="layer"
     id="layer1"
     transform="translate(0,-992.36216)">
    <g
       id="g7987"
       transform="translate(-0.63617617,0.80356725)">
      <rect
         inkscape:export-ydpi="300"
         inkscape:export-xdpi="300"
         y="991.55859"
         x="0.63617617"
         height="60"
         width="60"
         id="rect6160"
         style="opacity:1;fill:none;fill-opacity:1;stroke:none;stroke-width:5;stroke-linecap:round;stroke-linejoin:round;stroke-miterlimit:4;stroke-dasharray:none;stroke-dashoffset:0;stroke-opacity:1" />
      <g
         id="g7918"
         style="display:inline"
         transform="translate(-2179.3294,542.53613)">
        <circle
           transform="translate(0,-3.8757932e-6)"
           style="display:inline;opacity:1;fill:#d7d7d7;fill-opacity:1;stroke:#28c119;stroke-width:2.40281248;stroke-linecap:round;stroke-miterlimit:4;stroke-dasharray:none;stroke-dashoffset:0;stroke-opacity:1"
           id="path5962-3-7-2-0-3"
           cx="2209.9656"
           cy="479.02246"
           r="27.445288" />
        <g
           id="g7904"
           transform="matrix(0.7125,0,0,0.7125,597.20481,156.73797)">
          <ellipse
             ry="6.0527344"
             rx="5.9239526"
             cy="470.17471"
             cx="2277.6562"
             id="path7834-3"
             style="display:inline;fill:#083dff;fill-opacity:1;stroke:none;stroke-width:2.64053774;stroke-miterlimit:4;stroke-dasharray:none;stroke-opacity:1" />
          <ellipse
             ry="6.0527344"
             rx="5.9239526"
             cy="459.86221"
             cx="2285.1562"
             id="path7834-7"
             style="display:inline;fill:#08ffbc;fill-opacity:1;stroke:none;stroke-width:2.64053774;stroke-miterlimit:4;stroke-dasharray:none;stroke-opacity:1" />
          <ellipse
             ry="6.0527344"
             rx="5.9239526"
             cy="444.39346"
             cx="2285.1562"
             id="path7834-81"
             style="display:inline;fill:#40ff08;fill-opacity:1;stroke:none;stroke-width:2.64053774;stroke-miterlimit:4;stroke-dasharray:none;stroke-opacity:1" />
          <ellipse
             ry="6.0527344"
             rx="5.9239526"
             cy="433.14346"
             cx="2276.0156"
             id="path7834-1"
             style="display:inline;fill:#ffe208;fill-opacity:1;stroke:none;stroke-width:2.64053774;stroke-miterlimit:4;stroke-dasharray:none;stroke-opacity:1" />
          <ellipse
             ry="6.0527344"
             rx="5.9239526"
             cy="436.42471"
             cx="2246.25"
             id="path7834-8"
             style="display:inline;fill:#ff08c6;fill-opacity:1;stroke:none;stroke-width:2.64053774;stroke-miterlimit:4;stroke-dasharray:none;stroke-opacity:1" />
          <ellipse
             ry="6.0527344"
             rx="5.9239526"
             cy="428.9657"
             cx="2259.9431"
             id="path7834"
             style="fill:#ff0808;fill-opacity:1;stroke:none;stroke-width:2.64053774;stroke-miterlimit:4;stroke-dasharray:none;stroke-opacity:1" />
          <path
             style="fill:#7c5100;fill-opacity:1;stroke:none;stroke-width:0.9375;stroke-opacity:1"
             inkscape:connector-curvature="0"
             d="m 2262.1287,441.76206 -12.75,37.5 c -0.1875,0.46875 0.094,0.9375 0.4688,1.125 0.4687,0.1875 0.9375,-0.0937 1.125,-0.46875 l 14.8125,-36.75 z"
             id="path7244" />
          <path
             style="fill:#fcfcfc;fill-opacity:1;stroke-width:0.9375"
             inkscape:connector-curvature="0"
             d="m 2285.7537,429.94956 c -12.5625,-12.5625 -32.9062,-12.5625 -45.4687,0 -13.5001,13.5 2.9062,14.625 15.375,24.84375 l 5.3437,-15.5625 0.2813,0.0937 c -0.094,-0.75 -0.094,-1.40625 0.1875,-2.15625 0.375,-0.9375 1.125,-1.59375 1.875,-2.34375 l 0.4687,-0.375 c 0.6563,-0.5625 1.3125,-1.3125 2.0625,-2.4375 0.375,-0.65625 1.0313,-1.03125 1.7813,-1.03125 h 0.8437 l 0.6563,0.65625 c 0.2812,0.375 1.0312,1.125 0.6562,6.1875 -0.094,1.40625 -0.2812,1.96875 -0.375,2.25 -0.2812,0.65625 -0.6562,1.21875 -1.2187,1.6875 l 0.2812,0.0937 -7.5,18.28125 c 10.2188,12.375 11.5313,28.59375 24.75,15.375 12.6563,-12.5625 12.6563,-33 0,-45.5625 z m -39.4687,10.5 c -2.7188,0 -4.9688,-2.25 -4.9688,-4.96875 0,-2.71875 2.25,-4.96875 4.9688,-4.96875 2.7187,0 4.9687,2.25 4.9687,4.96875 0,2.71875 -2.25,4.96875 -4.9687,4.96875 z m 13.9687,-5.8125 c -2.7187,0 -4.9687,-2.25 -4.9687,-4.96875 0,-2.71875 2.25,-4.96875 4.9687,-4.96875 2.7188,0 4.9688,2.25 4.9688,4.96875 0,2.71875 -2.25,4.96875 -4.9688,4.96875 z m 24.6563,4.78125 c 2.7187,0 4.9687,2.25 4.9687,4.96875 0,2.71875 -2.25,4.96875 -4.9687,4.96875 -2.7188,0 -4.9688,-2.25 -4.9688,-4.96875 0,-2.8125 2.25,-4.96875 4.9688,-4.96875 z m -14.1563,-6.84375 c 0,-2.71875 2.25,-4.96875 4.9688,-4.96875 2.7187,0 4.9687,2.25 4.9687,4.96875 0,2.71875 -2.25,4.96875 -4.9687,4.96875 -2.8125,0.0937 -4.9688,-2.15625 -4.9688,-4.96875 z m 7.0313,42.9375 c -2.7188,0 -4.9688,-2.25 -4.9688,-4.96875 0,-2.71875 2.25,-4.96875 4.9688,-4.96875 2.7187,0 4.9687,2.25 4.9687,4.96875 0,2.71875 -2.25,4.96875 -4.9687,4.96875 z m 7.125,-11.25 c -2.7188,0 -4.9688,-2.25 -4.9688,-4.96875 0,-2.71875 2.25,-4.96875 4.9688,-4.96875 2.7187,0 4.9687,2.25 4.9687,4.96875 0.094,2.71875 -2.1562,4.96875 -4.9687,4.96875 z"
             id="path7246" />
          <path
             style="fill:#ff0808;fill-opacity:1;stroke:none;stroke-width:0.9375"
             inkscape:connector-curvature="0"
             d="m 2267.4725,439.51206 c 0.094,-0.28125 0.1875,-0.9375 0.2812,-1.78125 0.1875,-2.15625 0.1875,-5.34375 -0.375,-4.59375 -0.8437,1.3125 -1.6875,2.15625 -2.3437,2.8125 -0.8438,0.84375 -1.5938,1.3125 -1.7813,1.96875 -0.1875,0.375 -0.1875,0.84375 -0.094,1.21875 l 3.5625,1.3125 c 0.2812,-0.1875 0.5625,-0.5625 0.75,-0.9375 z"
             id="path7248-5" />
        </g>
      </g>
    </g>
  </g>
</svg>
