<?xml version="1.0" encoding="UTF-8" standalone="no"?>
<!-- Created with Inkscape (http://www.inkscape.org/) -->

<svg
   xmlns:dc="http://purl.org/dc/elements/1.1/"
   xmlns:cc="http://creativecommons.org/ns#"
   xmlns:rdf="http://www.w3.org/1999/02/22-rdf-syntax-ns#"
   xmlns:svg="http://www.w3.org/2000/svg"
   xmlns="http://www.w3.org/2000/svg"
   xmlns:sodipodi="http://sodipodi.sourceforge.net/DTD/sodipodi-0.dtd"
   xmlns:inkscape="http://www.inkscape.org/namespaces/inkscape"
   width="64"
   height="64"
   viewBox="0 0 60.000001 60.000001"
   id="svg5612"
   version="1.1"
   inkscape:version="0.92.1 r15371"
   inkscape:export-filename="F:\0-0-Agata\graphik\pictogrammes\Picto-visu-recyclage\eco-organisme.png"
   inkscape:export-xdpi="300"
   inkscape:export-ydpi="300"
   sodipodi:docname="statut.svg">
  <defs
     id="defs5614" />
  <sodipodi:namedview
     id="base"
     pagecolor="#ffffff"
     bordercolor="#666666"
     borderopacity="1.0"
     inkscape:pageopacity="0.0"
     inkscape:pageshadow="2"
     inkscape:zoom="5.6"
     inkscape:cx="-2.0892857"
     inkscape:cy="32.193993"
     inkscape:document-units="px"
     inkscape:current-layer="layer1"
     showgrid="false"
     units="px"
     inkscape:window-width="1366"
     inkscape:window-height="705"
     inkscape:window-x="-8"
     inkscape:window-y="-8"
     inkscape:window-maximized="1"
     showguides="false" />
  <metadata
     id="metadata5617">
    <rdf:RDF>
      <cc:Work
         rdf:about="">
        <dc:format>image/svg+xml</dc:format>
        <dc:type
           rdf:resource="http://purl.org/dc/dcmitype/StillImage" />
        <dc:title></dc:title>
      </cc:Work>
    </rdf:RDF>
  </metadata>
  <g
     inkscape:label="Calque 1"
     inkscape:groupmode="layer"
     id="layer1"
     transform="translate(0,-992.36216)">
    <rect
       style="opacity:1;fill:none;fill-opacity:1;stroke:none;stroke-width:5;stroke-linecap:round;stroke-linejoin:round;stroke-miterlimit:4;stroke-dasharray:none;stroke-dashoffset:0;stroke-opacity:1"
       id="rect6160"
       width="60"
       height="60"
       x="2.3521423e-008"
       y="992.36218"
       inkscape:export-xdpi="300"
       inkscape:export-ydpi="300" />
    <g
       transform="matrix(1.0546771,0,0,1.0546771,-2511.7108,723.1637)"
       style="display:inline"
       id="g7228">
      <circle
         r="26.355827"
         cy="283.68729"
         cx="2409.9421"
         id="path5962-9-0-9-9-3-4-3-8"
         style="display:inline;opacity:1;fill:#f5f5f5;fill-opacity:1;stroke:#0fb0ae;stroke-width:2.4000001;stroke-linecap:round;stroke-miterlimit:4;stroke-dasharray:none;stroke-dashoffset:0;stroke-opacity:1" />
      <g
         transform="translate(70.879489,-4.1436739)"
         id="g6659">
        <path
           style="fill:#005d1c;fill-opacity:1;stroke-width:0.9375"
           inkscape:connector-curvature="0"
           d="m 2339.0626,299.99785 c -8.4375,0 -14.3437,2.625 -14.3437,4.96875 0,2.34375 5.9062,4.96875 14.3437,4.96875 8.4375,0 14.3438,-2.625 14.3438,-4.96875 0,-2.34375 -5.9063,-4.96875 -14.3438,-4.96875 z"
           id="path6055" />
        <path
           style="fill:#0fb040;fill-opacity:1;stroke-width:0.9375"
           inkscape:connector-curvature="0"
           d="m 2339.0626,298.0291 c 6.1875,0 11.4375,1.3125 14.25,3.28125 v -2.25 c 0,-3.9375 -6.0937,-6.84375 -14.25,-6.84375 -8.1562,0 -14.25,2.8125 -14.25,6.75 v 2.25 c 2.8125,-1.875 8.0625,-3.1875 14.25,-3.1875 z"
           id="path6057" />
        <path
           id="path6061"
           d="m 2333.3439,287.62285 v 3.09375 c 1.7812,-0.375 3.6562,-0.5625 5.7187,-0.5625 1.9688,0 3.9375,0.1875 5.7188,0.5625 v -3.1875 c 0,-3.5625 0.6562,-6.84375 1.9687,-9.65625 0.5625,-1.125 0.8438,-2.34375 0.8438,-3.65625 0,-4.96875 -4.4063,-9 -9.4688,-8.4375 -3.8437,0.46875 -7.0312,3.5625 -7.5,7.40625 -0.1875,1.5 0,2.90625 0.5625,4.21875 1.5,3.75 2.1563,7.03125 2.1563,10.21875 z"
           inkscape:connector-curvature="0"
           style="fill:#0fb040;fill-opacity:1;stroke-width:0.9375" />
      </g>
    </g>
  </g>
</svg>
